<?xml version="1.0" encoding="UTF-8"?>
<svg id="Layer_2" data-name="Layer 2" xmlns="http://www.w3.org/2000/svg" viewBox="0 0 459.84 757">
  <defs>
    <style>
      .cls-1 {
        fill: #000;
      }

      .cls-1, .cls-2, .cls-3, .cls-4, .cls-5, .cls-6, .cls-7, .cls-8, .cls-9, .cls-10, .cls-11, .cls-12, .cls-13, .cls-14, .cls-15 {
        stroke-width: 0px;
      }

      .cls-2 {
        fill: #910913;
      }

      .cls-3 {
        fill: #72010f;
      }

      .cls-4 {
        fill: #b0a6a4;
      }

      .cls-5 {
        fill: #c88830;
      }

      .cls-6 {
        fill: #af742e;
      }

      .cls-7 {
        fill: #55131e;
      }

      .cls-8 {
        fill: #230608;
      }

      .cls-9 {
        fill: #414242;
      }

      .cls-10 {
        fill: #771526;
      }

      .cls-11 {
        fill: #333;
      }

      .cls-12 {
        fill: #fff;
      }

      .cls-13 {
        fill: #0c0c0d;
      }

      .cls-14 {
        fill: #a91e22;
      }

      .cls-15 {
        fill: #4d4d4d;
      }
    </style>
  </defs>
  <g id="Layer_2-2" data-name="Layer 2">
    <g>
      <path class="cls-1" d="M230.04,137.99s-.05,0-.07,0c-.14-.02-.27-.03-.41-.05l-.14-.02-.16-.02-.18-.02-.19-.02-.2-.03-.22-.03-.23-.03-.24-.03-.26-.03-.27-.03-.28-.03-.29-.04-.3-.04-.31-.04-.31-.04-.32-.04-.33-.04-.33-.04-.34-.04-.34-.04-.35-.04-.35-.04-.35-.04-.36-.04-.36-.04-.36-.04-.36-.04-.36-.04-.36-.04-.36-.04-.35-.04-.35-.04-.35-.04-.34-.04-.34-.04-.33-.04-.33-.04-.32-.04-.31-.04-.3-.04-.29-.04-.28-.04-.27-.03-.26-.03-.25-.03-.24-.03-.23-.03-.21-.03-.2-.02-.18-.02-.17-.02-.15-.02-.14-.02h-.12s-.07-.02-.1-.03h-.08s-.04-.02-.06-.02h-.07c-6.25-.78-6.34-7.36-7.87-13.46l-3.16-12.57-1.77,12.4-9.41-23.21-3.3,11.95-8.26-21.76-2.62,9.62-7.41-15.46-1.79,5.39s-24.38-29.36-39.4-44.13-21.32-30.78-21.32-30.79c-.2-.51-.51-1-.77-1.47-.66-1.21-1.38-2.39-2.14-3.53-.99-1.47-2.06-2.89-3.26-4.19s-2.56-2.54-4.11-3.46c-1.42-.84-3.03-1.4-4.7-1.33-1.89.08-3.61.97-5.02,2.19-3.06,2.65-4.75,6.32-6.41,9.92-.48,1.04-.99,2.06-1.55,3.06-.48.85-.91,1.74-1.4,2.59-.57,1.17-1.11,2.36-1.64,3.55-.65,1.49-1.27,3-1.87,4.51-.71,1.82-1.38,3.65-2.02,5.49-.74,2.14-1.44,4.31-2.09,6.48-.75,2.48-1.44,4.98-2.08,7.48-.72,2.82-1.38,5.65-1.99,8.5-.67,3.16-1.28,6.34-1.82,9.53-.6,3.52-1.11,7.04-1.56,10.58-.49,3.87-.9,7.75-1.23,11.64-.36,4.23-.63,8.47-.81,12.71-.04.96-.09,1.92-.11,2.88,0,0-1.12,41.88,2.94,57.28l-4.56,2.64,4.54,11.69s2.07,37.21,5.51,40.24l-11.59,11.24,10.26-1.15-21.44,19.46,15.22.75-10.9,8.82,8.28,1.68-4.56,4.44,15.93-1.82s-5.99,2.89-7.88,8.75l2.68-.13s-4.04,5.02-12.31,8.01c0,0,8.13,3.93,4.94,7.46,0,0-7.17,3.83-6.68,5.68l3.49,1.75s-12.57,13.54-20.79,15.82l12.04,2.56-24.51,26.25s13.99-3.22,20.12-.87l-14.88,20.12s-3.01,6.15-11.5,10.69c0,0,11.39,1.63,16.95-.92l-28.19,37.5,24.51-6.13-20.26,42.52s-3.73,9.43-8.61,13.5c0,0,12.12.41,20.12-5.26,0,0-8.24,44.48,7.88,98.9,0,0,14.86-18.3,14.99-34.94l9.52,48.08s7.38-1.27,10.5-20.99c0,0,28.17,65.01,30.64,83.15,0,0,8.99-9.88,10.73-18.38,0,0,37.17,63.43,40.46,84.47,0,0,13.36-29.09,13.32-34.52,0,0,4.4,23.74,11.18,33.65,0,0,7.08-10.07,7.43-17.08,0,0,48.55,66.96,52.95,89.98l.2,1.01s.2-1.01.2-1.01c4.4-23.01,52.95-89.98,52.95-89.98.35,7.01,7.43,17.08,7.43,17.08,6.78-9.91,11.18-33.65,11.18-33.65-.04,5.43,13.32,34.52,13.32,34.52,3.29-21.04,40.46-84.47,40.46-84.47,1.74,8.49,10.73,18.38,10.73,18.38,2.47-18.13,30.64-83.15,30.64-83.15,3.11,19.72,10.5,20.99,10.5,20.99l9.52-48.08c.13,16.64,14.99,34.94,14.99,34.94,16.12-54.42,7.88-98.9,7.88-98.9,8,5.67,20.12,5.26,20.12,5.26-4.88-4.07-8.61-13.5-8.61-13.5l-20.26-42.52,24.51,6.13-28.19-37.5c5.56,2.55,16.95.92,16.95.92-8.49-4.54-11.5-10.69-11.5-10.69l-14.88-20.12c6.13-2.35,20.12.87,20.12.87l-24.51-26.25,12.04-2.56c-8.22-2.28-20.79-15.82-20.79-15.82l3.49-1.75c.48-1.85-6.68-5.68-6.68-5.68-3.2-3.53,4.94-7.46,4.94-7.46-8.26-2.99-12.31-8.01-12.31-8.01l2.68.13c-1.89-5.86-7.88-8.75-7.88-8.75l15.93,1.82-4.56-4.44,8.28-1.68-10.9-8.82,15.22-.75-21.44-19.46,10.26,1.15-11.59-11.24c3.45-3.03,5.51-40.24,5.51-40.24l4.54-11.69-4.56-2.64c4.06-15.4,2.94-57.28,2.94-57.28-.42-12.03-1.49-24.06-3.41-35.95-1.43-8.87-3.34-17.68-5.88-26.31-1.81-6.14-4.02-12.17-6.6-18.03-2.32-5.26-4.75-10.83-8.05-15.56-2.58-3.68-6.38-6.55-10.99-4.64-4.75,1.97-8.1,6.97-10.55,11.28-.38.67-.76,1.36-1.09,2.06,0,0-6.31,16.02-21.32,30.79-15.01,14.77-39.4,44.13-39.4,44.13l-1.79-5.39-7.41,15.46-2.62-9.62-8.26,21.76-3.3-11.95-9.41,23.21-1.77-12.4-3.16,12.57c-1.54,6.11-1.62,12.68-7.91,13.46h-.05s-.04.01-.06.01h-.08s-.06.02-.1.02h-.11s-.08.03-.13.03l-.14.02-.16.02-.17.02-.18.02-.19.02-.21.03-.22.03-.23.03-.24.03-.25.03-.26.03-.27.03-.28.04-.28.04-.29.04-.3.04-.3.04-.31.04-.31.04-.32.04-.32.04-.32.04-.33.04-.33.04-.33.04-.33.04-.33.04-.33.04-.33.04-.33.04-.33.04-.33.04-.33.04-.32.04-.32.04-.31.04-.31.04-.3.04-.3.04-.29.04-.29.04-.28.04-.27.03-.26.03-.25.03-.24.03-.23.03-.22.03-.21.03-.2.03-.19.02-.17.02-.16.02-.15.02-.13.02h-.12s-.07.02-.1.03h-.08s-.05.02-.07.02h-.05s-.07.02-.11.01Z"/>
      <path class="cls-11" d="M230.19,140.33c.39,0,.78,0,1.18,0,.45-.01.9-.04,1.35-.07.6-.04,1.2-.1,1.79-.17.73-.08,1.45-.18,2.17-.3.84-.14,1.67-.3,2.5-.48.93-.2,1.86-.43,2.78-.69,1.01-.28,2.01-.6,3-.95,1.07-.38,2.13-.79,3.17-1.24,1.11-.48,2.21-2.8,3.28-3.37.84-.44,1.66-.91,2.47-1.4,0,0-3.96,9.68,11.04,4.68,0,0,0,8,6,2l6,4,1-3s0,6,14,4c0,0,3.6-.37-33.2-11.68,0,0,5.2-7.32,7.2-13.32,0,0,4-15,7,5,0,0,16-27,24-33,0,0,47.19-44.42,61.6-64.21,0,0,8.51-9.78,9.96-14.29,0,0,11.5,15.02,15.97,33.76,0,0,10.71,35.46,11.09,47.6,0,0,.76,7.38,2.88,5.26,0,0,3.7,36.67-2.25,57.28l5.74,2.6s-5.75,9.94-6.38,16.97c0,0-1.01,31.7-4.45,35.73l-7.17-2.7s-7-1-3-9c0,0,7.93-18.13,8-24,0,0-1-3-1-4,0,0,3.52-1.67,3-8,0,0-2-2.05-2-4,0,0,2.68-3.25,2-7,0,0,.56-7.46,2-10,0,0-2-4-3-9,0,0,0-2,.98-9.05,0,0-2.62-56.54-14.22-84.14l-1.26-2.23s-.84-.85-1.17-.71-.87-.89-.87-.89c0,0,2.22-3.8-2.62-4.39s0,0,0,0c0,0,.32-2.98-.76-3.78s0,0,0,0l-49.15,65.93s-16.07,13.78-22,56.02l77.17,55.73s16.26,7.75-1.92,6.63c0,0-2.66.61,2.58,2.75,0,0,5.24,1.14,18.24,15.14l2.05,1.58s-.36,1.98-8.71,1.2c0,0-9.16-.89,1.25,6.17l10.07,6.64s-10.81-.53-7.74,3.94l-9.93.47,5.89,14.41s2.55,9.84-2.17,12.71c0,0,6.66-2.32,7.47,1.28,0,0,.22,3.26,8.02,3.93l-10.78,5.2,10.58,1.39-6.01,4.08,8.95,2.05s-3.04,3.54-10.99,4.75c0,0,9.73.18,12.89,2.69,0,0-6.72,1.49,1.72,4.5l5.1,2.09-10.29,1.31s10.82,5.13,11.72,7.87c0,0-9.21,1.26-14.15,0,0,0,16.94,14.95,17.5,19.85l-11.44-5.1s14.96,16.96,15.98,19.48l-11.28-4.02s7.28,12.62,13.79,17.08c0,0-13.49-3.54-16.49-5.54,0,0,8,10,7,12,0,0-23-22-28-22,0,0,16.97,19.37,18.99,20.68l-41.39-22.16s45.91,26.7,63.16,65.09c0,0-11.51,1.78-39.13-12.41,0,0,12.38,13.53,30.38,21.16,0,0-20.93.19-31.46-6.08l19.65,19.65s-16.31,2.07-27.75-9.93c0,0,4.56,9,4.56,12,0,0-12.37-4.24-25.18-13.62,0,0,24.26,23.24,25.72,28.43,0,0-34.12-13.52-40.83-18.16l16.63,35.88-27.13-20.99,16.18,47.7s-28.73-23.46-31.07-29.34c0,0-4.43,36.87,1.74,43.52l-22.75-19.44s17.32,28.8,28,31.92c0,0-25.23-2.87-34.77-10.38,0,0,11.9,33.13,19.18,37.81,0,0-19.81-15.92-27.27-15.62,0,0,9.63,50.85,15.59,55.57,0,0-25.39-28.86-32.22-31.07,0,0-3.39,55.92.89,60.85,0,0-20.72-30.06-22.72-36.06l-13.83,93h-.15s-13.83-93-13.83-93c-2,6-22.72,36.06-22.72,36.06,4.28-4.94.89-60.85.89-60.85-6.82,2.21-32.22,31.07-32.22,31.07,5.96-4.73,15.59-55.57,15.59-55.57-7.45-.3-27.27,15.62-27.27,15.62,7.28-4.68,19.18-37.81,19.18-37.81-9.54,7.51-34.77,10.38-34.77,10.38,10.68-3.12,28-31.92,28-31.92l-22.75,19.44c6.16-6.65,1.74-43.52,1.74-43.52-2.33,5.89-31.07,29.34-31.07,29.34l16.18-47.7-27.13,20.99,16.63-35.88c-6.71,4.65-40.83,18.16-40.83,18.16,1.46-5.19,25.72-28.43,25.72-28.43-12.82,9.38-25.18,13.62-25.18,13.62,0-3,4.56-12,4.56-12-11.44,12-27.75,9.93-27.75,9.93l19.65-19.65c-10.54,6.28-31.46,6.08-31.46,6.08,18-7.64,30.38-21.16,30.38-21.16-27.62,14.2-39.13,12.41-39.13,12.41,17.25-38.39,63.16-65.09,63.16-65.09l-41.39,22.16c2.01-1.32,18.99-20.68,18.99-20.68-5,0-28,22-28,22-1-2,7-12,7-12-3,2-16.49,5.54-16.49,5.54,6.51-4.46,13.79-17.08,13.79-17.08l-11.28,4.02c1.02-2.52,15.98-19.48,15.98-19.48l-11.44,5.1c.56-4.9,17.5-19.85,17.5-19.85-4.95,1.26-14.15,0-14.15,0,.9-2.74,11.72-7.87,11.72-7.87l-10.29-1.31,5.1-2.09c8.44-3.01,1.72-4.5,1.72-4.5,3.16-2.51,12.89-2.69,12.89-2.69-7.96-1.21-10.99-4.75-10.99-4.75l8.95-2.05-6.01-4.08,10.58-1.39-10.78-5.2c7.79-.67,8.02-3.93,8.02-3.93.81-3.6,7.47-1.28,7.47-1.28-4.72-2.87-2.17-12.71-2.17-12.71l5.89-14.41-9.93-.47c3.07-4.47-7.74-3.94-7.74-3.94l10.07-6.64c10.41-7.05,1.25-6.17,1.25-6.17-8.34.78-8.71-1.2-8.71-1.2l2.05-1.58c13-14,18.24-15.14,18.24-15.14,5.24-2.14,2.58-2.75,2.58-2.75-18.18,1.11-1.92-6.63-1.92-6.63l77.17-55.73c-5.93-42.24-22-56.02-22-56.02L90.06,28.14s1.08-.8,0,0-.76,3.78-.76,3.78c0,0,4.84-.58,0,0s-2.62,4.39-2.62,4.39c0,0-.54,1.03-.87.89s-1.17.71-1.17.71l-1.26,2.23c-11.6,27.61-14.22,84.14-14.22,84.14.98,7.05.98,9.05.98,9.05-1,5-3,9-3,9,1.44,2.54,2,10,2,10-.68,3.75,2,7,2,7,0,1.95-2,4-2,4-.52,6.33,3,8,3,8,0,1-1,4-1,4,.07,5.87,8,24,8,24,4,8-3,9-3,9l-7.43,3c-3.45-4.03-4.45-36.03-4.45-36.03-1.33-7.2-6.12-16.97-6.12-16.97l5.39-2.6c-5.94-20.6-2.25-57.28-2.25-57.28,2.12,2.12,3.24-5.26,3.24-5.26.38-12.14,11.09-47.6,11.09-47.6,4.47-18.74,15.97-33.76,15.97-33.76,1.45,4.5,9.96,14.29,9.96,14.29,14.4,19.79,61.6,64.21,61.6,64.21,8,6,24,33,24,33,3-20,7-5,7-5,2,6,7.2,13.32,7.2,13.32-36.8,11.32-33.2,11.68-33.2,11.68,14,2,14-4,14-4l1,3,6-4c6,6,6-2,6-2,15,5,11.04-4.68,11.04-4.68,1.08.66,2.2,3.07,3.33,3.64,1.07.53,2.15,1.03,3.26,1.48,1.03.42,2.07.81,3.13,1.16.97.32,1.96.62,2.95.88.9.24,1.8.45,2.71.63.8.16,1.61.31,2.42.43.69.1,1.39.19,2.08.26.56.06,1.12.1,1.68.14.41.02.82.04,1.23.05.24,0,.48,0,.73,0,.17,0,.33,0,.5,0Z"/>
      <path class="cls-15" d="M419.34,422.61s-8.48,4.26-28.97-3.97l17.62,17.7s-17.02,4.52-27.19-7.93l5.67,11.31s3.7,6.59-20.03-9.67c1.22,1.16,18.15,17.93,19.57,23.92,0,0-7.86,1.56-40.6-16.06l15.73,33.91-26.65-18.62,15.9,45.85c-.62-.42-21.63-12.84-31.95-26.86,0,0,10.58,39.3,13.7,45.09-.17-.12-2.32,1.03-4.92-.94l-13-8.23-10.82-6.85c0,.22,7.29,7.87,21.85,22.96,0,0-12.67,5.78-24.81-.13-1.48-.72-3-1.51-4.39-2.58-2.07-1.59-1.48-1.07-3.61-2.44l.51,1.48s1.06,2.5,1.18,2.81c.01.02.01.03.01.03l18.36,33.75s-10.2-7.63-19.05-13.09c-.01,0-.03-.01-.04-.02l-.04-.02c-4.63-2.85-8.22-4.98-10.44-5.22,0,0,0,.02.01.04.05.25.29,1.49.3,1.51.41,1.56,13.28,48.95,16.89,54.68-.72-.73-21.01-19.87-30.47-28.46-.01-.01-.02-.02-.03-.03-1.69-1.53-3.06-2.7-3.94-3.33,0,0,0,0,.01.03,0,.06.05.21.1.46.64,3.02,3.76,20.46,1.02,61.28,0,0-16.26-21.15-22.17-34.6,0-.01,0-.03-.02-.04v.07c-.2,2.13-4.85,52.4-14.64,90.57l-.13.5-.13-.5c-9.79-38.17-14.44-88.44-14.64-90.57v-.07s-.01.03-.02.04c-5.91,13.45-22.17,34.6-22.17,34.6-2.74-40.82.38-58.26,1.02-61.28.05-.25.09-.4.1-.46.01-.02.01-.03.01-.03-.88.63-2.25,1.8-3.94,3.33l-.03.03c-9.31,8.46-28.38,27.82-29.66,29.12.11-.14.19-.36.26-.51.41-.79.73-1.62,1.05-2.45.45-1.18.86-2.38,1.27-3.58.49-1.49.97-2.99,1.44-4.5.53-1.72,1.05-3.45,1.56-5.18.55-1.88,1.09-3.76,1.63-5.64.55-1.96,1.1-3.92,1.64-5.88.54-1.96,1.08-3.92,1.61-5.88.51-1.88,1.02-3.77,1.52-5.66.46-1.73.92-3.47,1.38-5.21.4-1.51.79-3.02,1.18-4.53.32-1.21.63-2.42.95-3.63.35-1.37.82-2.76.98-4.16-.08-.01-.15-.01-.23-.01h-.01c-.61,0-1.29.16-1.87.35-.56.17-1.09.41-1.61.67-2.37,1.19-4.55,2.75-6.8,4.13l-.04.02s-.03.02-.04.02c-8.85,5.46-19.05,13.09-19.05,13.09l18.36-33.75s.01-.03.04-.08l2.24-5.3.23-.53s0-.02,0-.03c-1.12,1.25-1.8,1.99-2.63,2.7-.18.15-.35.29-.53.43-.18.14-.36.27-.53.4-.25.18-.49.36-.74.53-1.44,1.01-2.91,1.86-4.39,2.58-12.14,5.91-24.46.13-24.46.13,15.7-14.22,19.53-19.72,22.5-23.43l.31-.45-1.18.8-11.09,7.53-7.16,4.87c-2.6,1.97-4.39.83-4.56.95,3.12-5.79,7.64-42.3,7.64-42.3-10.32,14.02-29.92,24.95-30.54,25.37l14.76-44.29-25.7,17.59,14.37-32.19c-32.74,17.62-38.57,14.48-38.57,14.48,1.44-6.09,15.66-18.55,16.39-19.22-1.2.83-2.4,1.64-3.61,2.45-1.48.98-2.96,1.95-4.46,2.9-1.15.74-2.31,1.46-3.49,2.15-.87.51-1.75,1.01-2.64,1.48-.62.32-1.25.64-1.9.91-.41.18-.83.34-1.26.45-.24.06-.5.11-.74.07-.2-.03-.36-.18-.38-.39,0-.11.03-.22.07-.33.24-.7.66-1.32.89-2.02.26-.78.51-1.56.77-2.34.71-2.2,1.42-4.39,2.14-6.59-.2.24-.41.48-.62.72-1.31,1.46-2.81,2.76-4.51,3.74-1.45.84-3.02,1.45-4.65,1.8-1.46.32-2.97.43-4.47.36-1.35-.06-2.69-.26-4.01-.58-1.1-.27-2.18-.62-3.23-1.03-.73-.3-1.45-.62-2.16-.99-.04-.02-.74-.43-.78-.43l15.54-16.43c-20.49,8.23-27.35,2.87-27.35,2.87,27-15.64,22.19-14.82,22.19-14.82-21.63,12.2-30.95,6.07-30.95,6.07,14.17-35.75,42.4-51.45,46.14-53.71l-24.37,10.78,14.36-16.08c-9.53,6.13-24.57,19.05-24.57,19.05-.18-7.75,24.21-39.21,24.21-39.21l19.29-57.66c27.53-49.84,142.42-14.17,142.42-14.17,0,0,114.89-35.67,142.42,14.17l19.29,57.66s24.14,30.49,23.96,38.24c0,0-12.48-9.71-22.01-15.84l14.12,14.88-25.8-11.45c3.74,2.26,31.94,17.59,46.11,53.34,0,0-11.85,4.26-33.48-7.94,0,0-2.13.96,24.87,16.6Z"/>
      <path class="cls-11" d="M356.41,335.39c-.7-2.43-1.77-8.17.82-13.95,2.69-6,8.52-9.84,10.82-11.22,0,0-6.47.5-7.92-1.63-.95-1.39,1.09-2.67,2.53-7.41.96-3.15,1.76-12.97,1.38-9.72-15.03,1.44-16.39.82-16.39.82-.03,0,4.96-8.89,2.23-14.76-3.14-6.76-18.41-13.59-18.63-13.78,0,0-.11-.1-.11-.1,0,0-1.1,11.77-2.03,14.98-5.41,18.64-30.53,32.59-39.89,27.74-6.98-3.62-8.33-19.31-8.33-19.31,0,0-11.6,8.98-11.6,8.98,0,0,.3-18.5.3-18.5-12.11,13.05-18.44,19.86-18.44,19.86,0,0,3.26-11.71,8.33-29.92-7.69,1-16.16,2.89-24.99,6.22-1.52.57-3,1.17-4.44,1.78h-.25c-1.44-.61-2.92-1.21-4.44-1.78-8.84-3.33-17.3-5.22-24.99-6.22,5.07,18.22,8.33,29.92,8.33,29.92,0,0-3.6-3.87-10.56-11.37-2.27-2.45-4.9-5.28-7.88-8.48,0,0,.3,18.5.3,18.5,0,0-11.6-8.98-11.6-8.98,0,0-1.34,15.69-8.33,19.31-9.36,4.85-34.48-9.09-39.89-27.74-.93-3.21-2.04-14.97-2.03-14.98,0,0-.11.1-.11.1-.22.19-15.49,7.03-18.63,13.78-2.73,5.86,2.26,14.75,2.23,14.76,0,0-1.36.63-16.39-.82-.38-3.25.42,6.58,1.38,9.72,1.44,4.75,3.47,6.02,2.53,7.41-1.45,2.14-7.92,1.63-7.92,1.63,2.3,1.38,8.13,5.22,10.82,11.22,2.59,5.78,1.32,11.58.62,14.01v.02s-1.53,39.49,20.76,34.77c0,0-15.24,25.52-16.62,34.16,0,0,6.68-4.33,10.93-13.55-.23.59-4.76,12.42-2.32,18.85,0,0,6.08-1.93,11.08-11.01,0,0,3.85,14.65-2.45,29.62,0,0,6.47-7.93,7.71-8.6,0,0-.48,11.56-1.75,14.86,0,0,5.49-8.04,10.07-10.87,0,0-5.96,22.25-2.19,27.5,0,0,4.59-13.78,8.31-11.35,0,0-2.29,15.49-4.37,18.38,0,0,6.14-3.94,13.99-18.4,0,0-2.98,18.67-6.15,24.48,0,0,15.18-7.31-4.12,15.79,0,0,1.56,19.68-.78,28.59l12.27-8.33c.83-.74.45-.68,1.2-1.4.02-.02,1.58-1.57,1.58-1.57l.16-.17c.36-.38.71-.76,1.06-1.15.25-.28.5-.58.74-.87.06-.07.11-.16.18-.21l1.65-1.85c.13-.21.26-.42.39-.63.16-.24.31-.48.46-.73.17-.27.35-.55.52-.82.19-.3.38-.6.57-.91.2-.32.41-.65.61-.98.22-.34.44-.69.65-1.04.23-.36.46-.72.69-1.09.23-.37.47-.75.7-1.12.25-.39.49-.78.73-1.16.24-.39.49-.78.74-1.17.24-.4.49-.79.73-1.18.25-.39.49-.78.74-1.17.24-.39.48-.77.72-1.16.24-.37.47-.75.71-1.12.23-.37.45-.73.68-1.09.22-.35.43-.69.65-1.04.21-.32.41-.65.61-.97.19-.3.38-.6.57-.9.17-.28.34-.55.51-.82.15-.24.3-.48.45-.72.13-.21.26-.41.39-.62.11-.17.21-.33.31-.5.08-.12.16-.25.24-.37.04-.08.09-.15.14-.23.02-.03.03-.05.05-.08-.01.01-.01.03-.02.05-.04.18-.09.37-.14.56-.1.38-.19.76-.29,1.14-.14.56-.29,1.11-.43,1.66-.19.71-.37,1.41-.56,2.12-.22.84-.45,1.67-.67,2.51l-.78,2.85c-.29,1.05-.58,2.09-.87,3.13-.32,1.12-.64,2.23-.96,3.35-.34,1.16-.68,2.33-1.02,3.5-.36,1.2-.72,2.4-1.09,3.6-.37,1.21-.75,2.43-1.14,3.64-.38,1.2-.77,2.41-1.17,3.61-.39,1.18-.79,2.36-1.2,3.53-.4,1.14-.8,2.27-1.22,3.4-.4,1.06-.8,2.13-1.22,3.18-.39.98-.8,1.96-1.22,2.93-.38.87-.78,1.74-1.2,2.6-.36.75-.75,1.5-1.17,2.22-.35.61-.72,1.21-1.13,1.78-.25.36-.65.83-.98,1.23,1.48-.72,2.95-1.57,4.39-2.58.25-.17.49-.35.74-.53.17-.13.35-.26.53-.4.18-.14.35-.28.53-.43.83-.71,1.51-1.45,2.63-2.7,0,0,0,.03,0,.03l-.23.53-2.24,5.3s-.04.08-.04.08c.97.85,5.85,5.57-.16,10.45-6.43,5.24.45,9.95.85,10.21.01,0,.03-.01.04-.02l.04-.02c2.25-1.38,4.43-2.94,6.8-4.13.52-.26,1.05-.5,1.61-.67.58-.19,1.26-.35,1.87-.35.3-.07.56-.12.8-.15.01,0,4.24-2.8,4.24-2.8,0,0-1.82,17.77,8.39,30.65l.03-.03c1.69-1.5,3.05-2.66,3.92-3.29.02-.02.03-.03.05-.04.42-.28.83-.56,1.25-.84.26-.17.53-.35.79-.53.33-.22.65-.45,1.01-.63.56-.27,1.16-.45,1.76-.6,3.64-.92,10.07,37.66,10.07,37.66l6.13-7.89.02.03,10.05,11.34s.6-32.9-39.73-90.13c0,0-.87-6.85,1.97-1.06,0,0,.93-12.83,4.35-17.12,0,0,.13,24.2,11.73,41.42,0,0-.62-10.18,1.14-12.32l25.14,59.56.12.4.12-.4,25.14-59.56c1.76,2.14,1.14,12.32,1.14,12.32,11.6-17.22,11.73-41.42,11.73-41.42,3.42,4.29,4.35,17.12,4.35,17.12,2.84-5.79,1.97,1.06,1.97,1.06-40.33,57.23-39.73,90.13-39.73,90.13l10.05-11.34.02-.03,6.13,7.89s6.43-38.58,10.07-37.66c.6.15,1.2.33,1.76.6.36.18.68.41,1.01.63.26.18.53.36.79.53.42.28.83.56,1.25.84.02,0,.03.02.04.03.88.64,2.24,1.8,3.93,3.3.01.01.02.02.03.03,10.21-12.88,8.39-30.65,8.39-30.65.01,0,.03.02.04.02.08.05.16.1.25.15.14.09.29.18.43.27.19.12.37.23.56.35.21.13.42.26.63.39s.43.27.65.41c.21.13.41.26.61.39.18.11.35.22.52.34.15.1.31.2.45.31.04.03.07.06.12.08.01,0,.02.01.04.02.06.03.12.04.18.05l.21.06c.06.02.13.05.2.05,2.22.24,5.81,2.37,10.44,5.22l.04.02s.03.02.04.02c.4-.26,7.28-4.97.85-10.21-6.01-4.88-1.01-9.38-.04-10.23,0,0-.7-1.7-.71-1.72-.26-.46-.96-2.53-.96-2.54l3.45,2.17c1.44,1.01,2.91,1.86,4.39,2.58-.33-.4-.73-.87-.98-1.23-.41-.57-.78-1.17-1.13-1.78-.42-.72-.81-1.47-1.17-2.22-.42-.86-.82-1.73-1.2-2.6-.42-.97-.83-1.95-1.22-2.93-.42-1.05-.82-2.12-1.22-3.18-.42-1.13-.82-2.26-1.22-3.4-.41-1.17-.81-2.35-1.2-3.53-.4-1.2-.79-2.41-1.17-3.61-.39-1.21-.77-2.43-1.14-3.64-.37-1.2-.73-2.4-1.09-3.6-.34-1.17-.68-2.34-1.02-3.5-.32-1.12-.64-2.23-.96-3.35-.29-1.04-.58-2.08-.87-3.13-.26-.95-.52-1.9-.78-2.85-.22-.84-.45-1.67-.67-2.51-.19-.71-.37-1.41-.56-2.12-.14-.55-.29-1.1-.43-1.66-.1-.38-.19-.76-.29-1.14-.05-.19-.1-.38-.14-.56-.01-.02-.01-.04-.02-.05.02.03.03.05.05.08.05.08.1.15.14.23.08.12.16.25.24.37.1.17.2.33.31.5.13.21.26.41.39.62.15.24.3.48.45.72.17.27.34.54.51.82.19.3.38.6.57.9.2.32.4.65.61.97.22.35.43.69.65,1.04.23.36.45.72.68,1.09.24.37.47.75.71,1.12.24.39.48.77.72,1.16.25.39.49.78.74,1.17.24.39.49.78.73,1.18.25.39.5.78.74,1.17.24.38.48.77.73,1.16.23.37.47.75.7,1.12.23.37.46.73.69,1.09.21.35.43.7.65,1.04.2.33.41.66.61.98.19.31.38.61.57.91.17.27.35.55.52.82.15.25.3.49.46.73.13.21.26.42.39.63l1.65,1.85c.07.05.12.14.18.21.24.29.49.59.74.87.35.39.7.77,1.06,1.15l.16.17s1.56,1.55,1.58,1.57c.79.76,1.63,1.54,2.51,2.32l10.82,6.85c-2.13-9.14-.64-28.03-.64-28.03-19.3-23.1-4.12-15.79-4.12-15.79-3.17-5.81-6.15-24.48-6.15-24.48,7.85,14.46,13.99,18.4,13.99,18.4-2.08-2.89-4.37-18.38-4.37-18.38,3.72-2.43,8.31,11.35,8.31,11.35,3.77-5.25-2.19-27.5-2.19-27.5,4.58,2.83,10.07,10.87,10.07,10.87-1.27-3.3-1.75-14.86-1.75-14.86,1.24.67,7.71,8.6,7.71,8.6-6.3-14.97-2.45-29.62-2.45-29.62,5,9.08,11.08,11.01,11.08,11.01,2.44-6.43-2.09-18.26-2.32-18.85,4.25,9.22,10.93,13.55,10.93,13.55-1.38-8.64-16.62-34.16-16.62-34.16,22.29,4.72,20.76-34.77,20.76-34.77v-.08Z"/>
      <path class="cls-15" d="M329.75,351.56c7.59,8.42-1.48,9.07-1.48,9.07l-18,6.12,16.42,4.38-19.91,6.14c31.93,16.31.41,33.19.41,33.19l-5.67,24.17c-21.74,17.33-71.61,31.05-71.61,31.05h-.18s-49.87-13.72-71.61-31.05l-5.67-24.17s-31.52-16.88.41-33.19l-19.91-6.14,16.42-4.38-18-6.12s-10,.17-2.41-8.25l.24-.21s.54-.45,1.3-.8c2.15-.98,5.65-.68,6.15-.63-2.78-1.57-8.95-5.57-11.81-13.12-2.34-6.16-2.06-13.61,0-14.15,1.95-.5,3.58,5.59,10.7,8.43,2.04.81,8.33,2.9,6.24,2.18-5.27-5.35-5.65-10.88-5.65-10.88-.23-3.44.59-7.33.59-7.34,4.19,6.98,8.33,12.12,11.31,15.49,7.74,8.78,18.13,17.56,18.13,17.56,0,0-2.03-10.86-1.93-10.88.1-.02,4.94,10.4,5.8,11.02,0,0,7.14-10.61,7.14-10.61,0,0,3.27,11.7,3.27,11.7,0,0,5.82-4,16.65-11.42-9.71,16.67-14.57,25-14.57,25.03,5.51,1.37,8.46,3.82,10.11,5.71,0,0,2.54,8.69,5.99,23.47-.01-.06.1-.23.12-.29.04-.11.08-.22.11-.33.08-.25.15-.5.23-.75.13-.44.35-.85.5-1.28.14-.4.31-.74.48-1.13.35-.79.68-1.59,1.17-2.3.08-.12.17-.24.25-.36.52-.75,1.02-1.51,1.5-2.29.12-.2.27-.35.39-.55.13-.21.28-.31.43-.5.16-.2.4-.51.6-.68.4-.35.7-.72,1.08-1.09.55-.53,1.12-.91,1.66-1.46.59-.6,1.23-1.09,1.98-1.49s1.49-1.08,2.24-1.54c1.21-.74,2.47-1.33,3.78-1.92.27-.12,6.64-2.4,10.81-2.86,0,0,.67-.04.67-.04.03,0-.08.04,3.11-.24h.41c3.19.28,3.08.24,3.11.24,0,0,.67.04.67.04,4.16.46,10.54,2.73,10.81,2.86,1.31.59,2.57,1.18,3.78,1.92.75.46,1.47,1.13,2.24,1.54s1.38.88,1.98,1.49c.54.55,1.11.92,1.66,1.46.38.37.69.74,1.08,1.09.19.17.43.48.6.68.15.19.3.29.43.5.12.2.27.35.39.55.48.77.98,1.54,1.5,2.29.08.12.17.24.25.36.49.71.81,1.51,1.17,2.3.18.39.34.73.48,1.13.15.43.37.84.5,1.28.07.25.15.5.23.75.04.11.07.22.11.33.02.06.13.23.12.29,3.44-14.78,5.99-23.47,5.99-23.47,1.65-1.9,4.6-4.34,10.11-5.71,0-.02-4.86-8.36-14.57-25.03,10.83,7.43,16.65,11.42,16.65,11.42,0,0,3.27-11.7,3.27-11.7,0,0,7.14,10.61,7.14,10.61.86-.62,5.7-11.03,5.8-11.02.1.02-1.93,10.88-1.93,10.88,0,0,10.38-8.78,18.13-17.56,2.98-3.37,7.12-8.51,11.31-15.49,0,.01.83,3.9.59,7.34,0,0-.38,5.53-5.65,10.88-2.08.72,4.2-1.36,6.24-2.18,7.13-2.84,8.76-8.94,10.7-8.43,2.06.53,2.34,7.98,0,14.15-2.86,7.54-9.03,11.55-11.81,13.12.5-.05,4-.35,6.15.63l.41.18Z"/>
      <g>
        <path class="cls-10" d="M369.93,30.8s1.6.36.76,3.78c0,0,5.08.35,2.62,4.39l.87.89s.4-.17,1.04.48c0,0,2.32,3.95,2.48,4.8,0,0,9.88,19.09,10.52,38.47,0,0,3.57,30.2,2.61,43.29l4.03-2.91-3,7s4.71,1.33,4.86,4.17l-4.61-.85s2.12,1.57,1.75,3.68l-1,1s-.47,2.67-1,5c0,0,1.11,12.35,0,14,0,0-2,3-2,4,0,0,.41,3.39,2,2,0,0,1,5-3,10,0,0,3.2,4.03,1,7,0,0-4.88,16.66-8,21,0,0-1.84,4.5-1,7,0,0-3.71-5.24-10.85-12.35s-18.27-16.56-30.81-24.72c-13.04-8.48-27.17-23.22-41.17-19.18,0,0,7.17-34.26,22.54-55.8,0,0,24.45-43.35,49.38-66.15Z"/>
        <path class="cls-7" d="M382.02,209.51s-.91-2.18.96-7.84c0,0,3.27-4.61,8.07-20.64,0,0,2.8-2.03-1.2-7.03,0,0,3.81-4.21,3.41-10.61,0,0-1.41,1.61-2.41-1.39,0,0,.22-1.29,2.11-2.65,0,0,.95,0,.42-15.68,0,0,.47-.67-.53-4.67l2.37-.11s.12-2.26-3.12-4.57l4.61.85s.14-3.17-4.86-4.17l3-7-4.03,2.91s1.95-30.59-.79-42.2c-.1-.43-.2-.86-.27-1.3-.34-2.16-1.79-10.16-5.97-23.11,0,0,.06,6.7,3.06,23.7,0,0-3-3-2-1,0,0,1,6,0,12,0,0-1,0-2-1,0,0-7.12-3.38-1.06,4.31,0,0,4.06,2.69,2.06,5.69,0,0-4-1-5-2,0,0,2.48,3.55,2.74,6.28,0,0,4.26,3.72.26,9.72,0,0-3,3,0,5,0,0,6.48,9.3-.26,31.65,0,0,1.26-8.65-8.74-4.65,0,0-4.72-5.52-4.86-18.26,0,0-4.01-.98-2.58,2.64,0,0,3.52,8.73-5.02,17.18,0,0-1.54-.56-1.54-1.56l-13.54,17.7,6.83,9.08-.17,7.08,11.25,10.42s10.32-.21,7.44,6.38c-1.36,3.12,5.64,8.09,11.34,8.85Z"/>
        <path class="cls-7" d="M349.7,139.39l6.16-39.39-8.49-4.61-1.99.47s2.04,5.51-14.75.83c0,0-5.37-.45-10.08,14.93,0,0-2.3.72,0-6.95,0,0,.21-3.07-3.24-1.37,0,0-16.46,20.7-14.46,41.7,0,0,1.06,16.28,3.98,15.68,10.9-2.24,18.03,10.43,26.52,7.37s16.34-28.67,16.34-28.67Z"/>
        <path class="cls-13" d="M390.14,212.93s-7.86-3-9.29-3.92.42-7.35,2.1-7.29l-6.13.45s6.29-2.64,6.72-3.64c0,0-4.16.21-5.36.52,0,0-1.91-1.94-1.5-3.62,0,0-1.15-4.44-8.61-2.01,0,0,3.09-3.81,3.49-7.39,0,0-5.79,3.35-7.64,3.7,0,0-9.41,4.98,2.09-7.67,0,0,6.6-7.7,6.88-11.77,0,0-17.75,15.44-19.7,11.76,0,0,6.85-5.96,6.99-9.6,0,0-1.08-.39-3.55,1.36,0,0-2.3-.57,2.63-4.87,0,0,4.67-3.79,2.26-4.86,0,0-4.32,5.36-3.95.64,0,0-.42-3.77-5.4,2.82l6.29-9.15h-5.26s8.28-7.63,5.71-10.86c0,0-6.33,4.14-8.75,3.91,0,0,4.84-11.02,14.54-16.14,0,0,1.31-4.23,3.39-3.58,0,0-.64-1.56-4.28-.7,0,0-2.05-.16,5.13-6.71,0,0-8.07-2.62-9.6-2.26,0,0,9.43-4.17,10.49-5.61,0,0-9.66-5.78-11.37-5.14,0,0,13.81-5.55,14.77-4.83l-12.18-4.04s15.24-.53,5.45-5.12c0,0,8.38-2.93,10.32-.57,0,0,1.38-2.82-5.28-5.69,0,0,7.67.99,8.17-.37,0,0-10.09-3.92,1.45-4.89l-13.63-3.77,12.76-4.11-10.89-2.68s9.87-5.25,10.69-9.4c0,0-2.44,2.89-7.51,1.8,0,0-3.14-1.06,5.74-7.51,0,0,1.87-2.66-3.57-.98l-4.32,1.31,8.39-5.67s-7.15.43-.29-7.93l-.85-1.79s-13.48,10.09-3.45-5.22l-.71-1.25s-5.8,4.98-3.59-7.8c0,0-1.61-1.19-11.48,16.07,0,0,5.77,4.33-1.65,4.63l4.27,4.6-4.29,1.74s4.27,1.68,2.47,3.12c0,0-1.93,1.94-7.8,2.99,0,0,14.08,5.54,4.83,6.32,0,0-4.11.44,1.25,4.08l-12.11,1.83s20.63,7.06-1.82,7.02c0,0,25.71,7.63,4.09,6.59l1.57,2.51-8.74.06s15.32,7.58,4.99,8.44c0,0-2.11,1.81,3.28,1.78,0,0,18.48,1.79-13.25,3.05l7.13,3.76-3.94,1.67,7.47,1.97-13.99,4.29,14.85,3.52s-9.28,3.67-12.88,8.15c0,0,3.27-.6,8.29,1.9l-3.69,2.96,5.11,1.33s-10.72,6.21,4.03,4.88c0,0-13.36,3.59-9.75,9.86s-7.9,13.04-7.9,13.04l-.26-11.09s-14.91,23.87-9.22-3.26c0,0-15.33,20.92-8.18-7.43l-6.76,8.58,3.56-11.88-4.61,5.8s3.3-30.65,15.75-46.72c0,0-17.11,10.73-22.49,55.84,0,0,9.18-1.07,3.94,9.62,0,0,6.59-5.35,21.34,3.82,0,0-4.51,8.33,13.92,5.83,0,0,4.54,1.87-2.04,5.19l12.72,1.13-5.67,6.1s16.96-1.54,11.17,6.42c0,0-3.67,10.29,16.5,5.75l-8.9,5.54,20.99,10.25,8.12.48Z"/>
      </g>
      <path class="cls-4" d="M229.96,467.82c31.23-2.72,40.38-12.36,40.38-12.36-7.32-2.7-18.59.66-18.59.66-14.56,4.25-21.79,4.24-21.79,4.24h-.21s-7.23,0-21.79-4.24c0,0-11.27-3.36-18.59-.66,0,0,9.15,9.63,40.38,12.36h.21Z"/>
      <path class="cls-1" d="M229.91,460.4c6.15.51,20.27-3.9,20.27-3.9,12.18-3.83,19.81-.92,19.81-.92,1.87-.47,33.28-19.27,33.28-19.27,2.94-4.29,4.2-20.54,4.2-20.54,2.16-14.15,7.17-20.13,7.17-20.13-9.86-17.46-6.88-2.43-6.88-2.43.93,4.39-7.5,12.9-7.5,12.9-2.85,3.73-8.38,23.55-8.38,23.55-8.83,22.11-20.96,20.84-20.96,20.84-7.8,1.28-21.87-3.45-21.87-3.45-5.56.44-3.94-1.67-3.94-1.67,11.89-3.94-3.42-2.44-3.42-2.44-2.18-.1-4.43-.14-6.59-.54-.26-.05-1.44-.27-.73-.6.76-.37,1.74-.44,2.56-.56.8-.12,1.6-.22,2.4-.31.63-.07,1.27-.1,1.9-.16l.26-.03s.07,0,.1-.02c.02,0,.03-.02.04-.03,0-.02,0-.04-.01-.06-.2-.28-.39-.6-.4-.95,0-.2.03-.39.08-.58.16-.57.51-1.08.88-1.54,1.01-1.27,2.32-2.3,3.62-3.26s2.67-1.86,4.06-2.7c.68-.41,1.37-.82,2.07-1.21,12.22-12.06,10.64-26.48,10.64-26.48-.48-32.92-32.7-32.09-32.7-32.09h-.15s-32.22-.84-32.7,32.09c0,0-1.59,14.42,10.64,26.48.12.11.35.19.49.26.44.24.87.48,1.3.73,1.33.77,2.63,1.59,3.89,2.47,1.32.93,2.64,1.92,3.73,3.12.31.34.61.7.85,1.1s.45.83.5,1.3c.02.24-.02.49-.11.72-.08.2-.19.37-.31.55-.04.06.03.08.1.08.09,0,.18.01.27.02.24.02.48.05.72.07.12.01.25.03.37.04s.25.04.37.04c.22.02.43.05.65.07.39.05.79.09,1.18.14.41.05.87.18,1.28.18.49.08.99.16,1.47.27.29.07.67.12.92.29.56.38-.93.58-1.1.6-2.08.33-4.21.4-6.31.49,0,0-15.3-1.5-3.42,2.44,0,0,1.61,2.11-3.94,1.67,0,0-14.07,4.73-21.87,3.45,0,0-12.13,1.27-20.96-20.84,0,0-5.53-19.82-8.38-23.55,0,0-8.42-8.51-7.5-12.9,0,0,2.97-15.03-6.88,2.43,0,0,5.01,5.99,7.17,20.13,0,0,1.26,16.25,4.2,20.54,0,0,31.41,18.8,33.28,19.27,0,0,7.63-2.91,19.81.92,0,0,14.12,4.41,20.27,3.9h.21Z"/>
      <g>
        <path class="cls-9" d="M225.72,414.08s-4.41,5.86-10.74,5.45c0,0-3.33,2.99,2.5,1.91,0,0,6.99-.89,8.24-7.36Z"/>
        <path class="cls-9" d="M215.23,403.35s-5,.69-5.33-2.02c0,0,3.08-1.74,5.33,2.02Z"/>
        <path class="cls-9" d="M229.95,441.78s2.84-7.25,0-19.33l-.09-.46-.09.46c-2.85,12.08,0,19.33,0,19.33l.1.24.1-.24Z"/>
        <path class="cls-9" d="M233.99,414.08s4.41,5.86,10.74,5.45c0,0,3.33,2.99-2.5,1.91,0,0-6.99-.89-8.24-7.36Z"/>
        <path class="cls-9" d="M244.49,403.35s5,.69,5.33-2.02c0,0-3.08-1.74-5.33,2.02Z"/>
      </g>
      <path class="cls-12" d="M229.94,392.61c1.44.01,2.89-.07,4.32-.26,1.56-.21,3.16-.58,4.44-1.5s2.2-2.49,1.96-4.05c-.22-1.38-1.31-2.51-2.58-3.09s-2.71-.68-4.11-.64c-.85.02-1.7.09-2.55.13s-1.68,0-2.52-.01c-1.13-.03-2.26-.14-3.4-.15-1.43,0-2.89.16-4.15.84s-2.27,1.92-2.35,3.35c-.09,1.55.94,3,2.27,3.82s2.9,1.1,4.44,1.29c1.4.17,2.81.27,4.23.28Z"/>
      <path class="cls-1" d="M187.07,420.98s-5.01,3.22-11.6-13.02c0,0-.91-2.08-4.16-1.42,0,0,1.26-3.2,3.29-3.87l-5.06-.05,4.42-4.4s-5.79-.73-.08-4.02-7.35.96-7.35.96l3.07-4.39s3.1-.61,5.34.08c0,0,1.05,1.18,4.24.84,0,0-.48,2.58,1.37,3.06l-3.93,2.62,6.98,2.56s-13.81,1.97-.24,6.36c0,0,8.38,5.58,9.39,8.12,0,0-30.47-21.54-5.66,6.56Z"/>
      <path class="cls-1" d="M272.64,420.98s5.01,3.22,11.6-13.02c0,0,.91-2.08,4.16-1.42,0,0-1.26-3.2-3.29-3.87l5.06-.05-4.42-4.4s5.79-.73.08-4.02,7.35.96,7.35.96l-3.07-4.39s-3.1-.61-5.34.08c0,0-1.05,1.18-4.24.84,0,0,.48,2.58-1.37,3.06l3.93,2.62-6.98,2.56s13.81,1.97.24,6.36c0,0-8.38,5.58-9.39,8.12,0,0,30.47-21.54,5.66,6.56Z"/>
      <g>
        <g>
          <path class="cls-1" d="M138.47,256.09c3.39-.11,5.19-.16,5.19-.16,4.32-3.56,6.69-4.85,6.69-4.85,4.32-2.35,8.6-2.36,10.7-2.34,5.07.04,9.53,2.01,9.53,2.01,0,0,4.69,2.25,7.69,6.02,2.16,2.71,3.17,5.87,3.82,7.9.45,1.42.38,1.53,1.03,3.64.82,2.68,1.61,4.63,2.51,6.86,1.6,3.97,2.44,5.85,2.64,8.58.03.45.03.9-.02,1.4-.14,1.63-.78,5.4-.78,5.4,0,0-1.13-2.1-2.54-3.48-1-.98-2-1.45-2.97-1.9-2.75-1.27-5.27-1.49-7.37-1.65-4.37-.32-6.95-.13-8.53-.16-10.27-.17-19.6-10.04-22.58-15.57-.42-.77-3.18-6.02-3.18-6.02l-6.19-1.17s-3.18-1-3.18-1c0,0,7.52-3.52,7.52-3.52Z"/>
          <path class="cls-14" d="M177.42,267.01c0,.19-.03.84-.14,1.62-.19,1.31-.4,2.79-1.17,4.18-.87,1.58-2.11,2.4-3.23,3.14-.34.22-1.98,1.29-4.46,1.88-1.95.46-3.49.41-4.85.33-1.35-.07-3.14-.17-5.18-.84-1.37-.45-5.43-2-8.2-6.19-.61-.92-2.03-3.14-2.34-6.36-.11-1.17-.29-3.25.67-5.52,1.46-3.47,4.55-5.03,6.19-5.85.82-.42,3.79-1.82,7.86-1.67,1.25.05,5,.23,8.7,2.84,1.07.76,4.66,3.26,5.76,7.78.25,1.01.43,3.79.41,4.64Z"/>
          <path class="cls-8" d="M149.25,257.85c.69-.57,1.69-1.34,2.99-2.11,1.41-.83,3.65-2.12,6.84-2.59,3.12-.46,5.53.09,6.09.24,2.5.7,4.9,2.19,4.9,2.19,0,0,0,0,0,0,0,0-1.34.66-2.34,1-1.62.56-1.85.14-3.85.67-1.03.27-1.73.45-2.51,1-1.21.85-1.75,1.97-2.01,2.51-.35.73-.74,1.9-.67,3.34.03.51.12,2.03,1.17,3.51.13.19.62.85,1.51,1.51.42.31,3.51,2.58,6.86,1.34,2.13-.79,3.15-2.55,3.51-3.18.35-.6,1.52-2.62,1-4.85-.43-1.85-1.83-3.01-1.34-3.68.37-.5,1.53-.85,1.5-.84-2.32-1.82-2.87-2.3-2.84-2.34.05-.06,1.73,1.04,3.31,2.39.48.41.76.68.88.79.39.38,1.21,1.19,1.9,2.26.5.77.79,1.46.94,1.85.08.22.12.35.13.35.01,0-.56-2.84-1.81-5.03-1.66-2.9-4.29-4.31-5.79-5.11-.45-.24-3.74-1.97-7.73-1.99-.55,0-.99.02-1.27.04-1.13.07-3.14.36-5.39,1.41-.77.36-2.07.98-3.46,2.22-1.24,1.11-2.04,2.25-2.52,3.06Z"/>
          <path class="cls-3" d="M171.5,259.71s-.4-.7-1.11-1.24c-.34-.26-.9-.59-.9-.59-.55-.32-2.29-1.24-4.62-.96-2.16.26-3.57,1.4-4.06,1.84,5.96-.85,7.67-1.55,7.77-2.08.06-.31.12-.53.12-.53s-.02-.72-2.47-2.4c0,0,.02,0,.06.01.38.08,1.62.35,3.2,1.2,1.21.65,2.03,1.31,2.66,1.83.79.65,1.41,1.27,1.86,1.74-.15-.1-.97-.6-1.82-.29-.12.05-.67.26-.82.71-.12.35.16.74.13.76Z"/>
          <path class="cls-12" d="M161.34,259.08c1.85.66,3.49.3,5.52-.17,2.03-.47,2.78-1,3.26-1.63.23-.31.38-.61.46-.82.1-.29.07-.48.02-.61,0,0-.04-.09-.34-.45h0c-.2-.11-.47-.26-.81-.44-.16-.08-.98-.51-1.6-.78-.63-.27-1.52-.59-2.68-.8,0,0,0,0,0,0-.23.02-.54.06-.91.15-.64.14-2.06.45-3.2,1.53-.25.23-1.79,1.69-1.36,2.86.23.64.95.91,1.63,1.15Z"/>
          <path class="cls-2" d="M176.03,265.7c.32,0,.61,1.3.66,2.35.09,2.07-.78,3.64-1.07,4.14-2.03,3.56-6.34,4.69-7.59,5.02-4.55,1.19-8.36-.11-9.78-.69-3.44-1.4-5.41-3.62-5.96-4.26-1.02-1.21-3.41-4.03-3.39-8.12,0-.43.08-4.66,3.04-7.28.82-.73,2.08-1.52,2.41-1.22.33.29-.48,1.43-1.19,3.32-.4,1.07-1.25,3.33-1.1,5.9.18,2.88,1.56,4.95,2.01,5.58,1.86,2.59,4.33,3.58,5.46,4.01,3.96,1.52,7.48.63,8.62.28,1.43-.43,4.83-1.46,6.46-4.42,1.21-2.2.98-4.61,1.41-4.61Z"/>
        </g>
        <g>
          <path class="cls-1" d="M321.37,256.09c-3.39-.11-5.19-.16-5.19-.16-4.32-3.56-6.69-4.85-6.69-4.85-4.32-2.35-8.6-2.36-10.7-2.34-5.07.04-9.53,2.01-9.53,2.01,0,0-4.69,2.25-7.69,6.02-2.16,2.71-3.17,5.87-3.82,7.9-.45,1.42-.38,1.53-1.03,3.64-.82,2.68-1.61,4.63-2.51,6.86-1.6,3.97-2.44,5.85-2.64,8.58-.03.45-.03.9.02,1.4.14,1.63.78,5.4.78,5.4,0,0,1.13-2.1,2.54-3.48,1-.98,2-1.45,2.97-1.9,2.75-1.27,5.27-1.49,7.37-1.65,4.37-.32,6.95-.13,8.53-.16,10.27-.17,19.6-10.04,22.58-15.57.42-.77,3.18-6.02,3.18-6.02l6.19-1.17s3.18-1,3.18-1c0,0-7.52-3.52-7.52-3.52Z"/>
          <path class="cls-14" d="M282.42,267.01c0,.19.03.84.14,1.62.19,1.31.4,2.79,1.17,4.18.87,1.58,2.11,2.4,3.23,3.14.34.22,1.98,1.29,4.46,1.88,1.95.46,3.49.41,4.85.33,1.35-.07,3.14-.17,5.18-.84,1.37-.45,5.43-2,8.2-6.19.61-.92,2.03-3.14,2.34-6.36.11-1.17.29-3.25-.67-5.52-1.46-3.47-4.55-5.03-6.19-5.85-.82-.42-3.79-1.82-7.86-1.67-1.25.05-5,.23-8.7,2.84-1.07.76-4.66,3.26-5.76,7.78-.25,1.01-.43,3.79-.41,4.64Z"/>
          <path class="cls-8" d="M310.59,257.85c-.69-.57-1.69-1.34-2.99-2.11-1.41-.83-3.65-2.12-6.84-2.59-3.12-.46-5.53.09-6.09.24-2.5.7-4.9,2.19-4.9,2.19,0,0,0,0,0,0,0,0,1.34.66,2.34,1,1.62.56,1.85.14,3.85.67,1.03.27,1.73.45,2.51,1,1.21.85,1.75,1.97,2.01,2.51.35.73.74,1.9.67,3.34-.03.51-.12,2.03-1.17,3.51-.13.19-.62.85-1.51,1.51-.42.31-3.51,2.58-6.86,1.34-2.13-.79-3.15-2.55-3.51-3.18-.35-.6-1.52-2.62-1-4.85.43-1.85,1.83-3.01,1.34-3.68-.37-.5-1.53-.85-1.5-.84,2.32-1.82,2.87-2.3,2.84-2.34-.05-.06-1.73,1.04-3.31,2.39-.48.41-.76.68-.88.79-.39.38-1.21,1.19-1.9,2.26-.5.77-.79,1.46-.94,1.85-.08.22-.12.35-.13.35-.01,0,.56-2.84,1.81-5.03,1.66-2.9,4.29-4.31,5.79-5.11.45-.24,3.74-1.97,7.73-1.99.55,0,.99.02,1.27.04,1.13.07,3.14.36,5.39,1.41.77.36,2.07.98,3.46,2.22,1.24,1.11,2.04,2.25,2.52,3.06Z"/>
          <path class="cls-3" d="M288.34,259.71s.4-.7,1.11-1.24c.34-.26.9-.59.9-.59.55-.32,2.29-1.24,4.62-.96,2.16.26,3.57,1.4,4.06,1.84-5.96-.85-7.67-1.55-7.77-2.08-.06-.31-.12-.53-.12-.53s.02-.72,2.47-2.4c0,0-.02,0-.06.01-.38.08-1.62.35-3.2,1.2-1.21.65-2.03,1.31-2.66,1.83-.79.65-1.41,1.27-1.86,1.74.15-.1.97-.6,1.82-.29.12.05.67.26.82.71.12.35-.16.74-.13.76Z"/>
          <path class="cls-12" d="M298.5,259.08c-1.85.66-3.49.3-5.52-.17-2.03-.47-2.78-1-3.26-1.63-.23-.31-.38-.61-.46-.82-.1-.29-.07-.48-.02-.61,0,0,.04-.09.34-.45h0c.2-.11.47-.26.81-.44.16-.08.98-.51,1.6-.78.63-.27,1.52-.59,2.68-.8,0,0,0,0,0,0,.23.02.54.06.91.15.64.14,2.06.45,3.2,1.53.25.23,1.79,1.69,1.36,2.86-.23.64-.95.91-1.63,1.15Z"/>
          <path class="cls-2" d="M283.81,265.7c-.32,0-.61,1.3-.66,2.35-.09,2.07.78,3.64,1.07,4.14,2.03,3.56,6.34,4.69,7.59,5.02,4.55,1.19,8.36-.11,9.78-.69,3.44-1.4,5.41-3.62,5.96-4.26,1.02-1.21,3.41-4.03,3.39-8.12,0-.43-.08-4.66-3.04-7.28-.82-.73-2.08-1.52-2.41-1.22-.33.29.48,1.43,1.19,3.32.4,1.07,1.25,3.33,1.1,5.9-.18,2.88-1.56,4.95-2.01,5.58-1.86,2.59-4.33,3.58-5.46,4.01-3.96,1.52-7.48.63-8.62.28-1.43-.43-4.83-1.46-6.46-4.42-1.21-2.2-.98-4.61-1.41-4.61Z"/>
        </g>
      </g>
      <g>
        <path class="cls-10" d="M168.94,240c-6.12-1.36-6.64-.49-9.57-1.74-5.43-2.32-8.51-7.39-10.28-11.45,3.73-.93,8.53-1.41,13.22.55,4.59,1.91,7.76,5.62,7.76,5.61,0-.01-5.07-3.43-8.86-8.89-2.54-3.67-3.81-7.27-4.49-9.85,2.18.54,5.06,1.53,8.07,3.42,5.73,3.6,8.71,8.43,10.03,10.98-1.39-2.23-2.91-5.04-4.22-8.42-1.2-3.09-1.95-5.93-2.43-8.34,2.05,1.18,4.95,3.18,7.61,6.42,4.3,5.25,5.53,10.78,5.93,13.48-1.12-1.4-3.79-5.11-3.97-10.41-.09-2.53.42-4.63.92-6.07,1.88,1.72,4.71,4.75,6.82,9.27,1.59,3.42,2.24,6.54,2.51,8.77-.35-1.08-.87-3.15-.48-5.71.49-3.24,2.16-5.38,2.92-6.25,1.13,1.41,3.49,4.76,3.94,9.6.24,2.66-.17,4.88-.59,6.36,0,0,1.61-6.12,3.68-8.5.21,1.29.5,3.04.84,5.12,2.6,15.95,3.11,20.14,1.28,21.18-.46.26-1.29.45-2.84-.23-2.78-2.7-6.78-6.06-12.15-9.03-2.45-1.36-7.95-4.15-15.67-5.87Z"/>
        <path class="cls-10" d="M290.9,240c6.12-1.36,6.64-.49,9.57-1.74,5.43-2.32,8.51-7.39,10.28-11.45-3.73-.93-8.53-1.41-13.22.55-4.59,1.91-7.76,5.62-7.76,5.61,0-.01,5.07-3.43,8.86-8.89,2.54-3.67,3.81-7.27,4.49-9.85-2.18.54-5.06,1.53-8.07,3.42-5.73,3.6-8.71,8.43-10.03,10.98,1.39-2.23,2.91-5.04,4.22-8.42,1.2-3.09,1.95-5.93,2.43-8.34-2.05,1.18-4.95,3.18-7.61,6.42-4.3,5.25-5.53,10.78-5.93,13.48,1.12-1.4,3.79-5.11,3.97-10.41.09-2.53-.42-4.63-.92-6.07-1.88,1.72-4.71,4.75-6.82,9.27-1.59,3.42-2.24,6.54-2.51,8.77.35-1.08.87-3.15.48-5.71-.49-3.24-2.16-5.38-2.92-6.25-1.13,1.41-3.49,4.76-3.94,9.6-.24,2.66.17,4.88.59,6.36,0,0-1.61-6.12-3.68-8.5-.21,1.29-.5,3.04-.84,5.12-2.6,15.95-3.11,20.14-1.28,21.18.46.26,1.29.45,2.84-.23,2.78-2.7,6.78-6.06,12.15-9.03,2.45-1.36,7.95-4.15,15.67-5.87Z"/>
      </g>
      <path class="cls-1" d="M229.95,264.35s8.56,1.73,8.19,12.88c-.12,3.47.76,7.23,1.34,10.62,1.43,8.3,3.6,16.49,6.65,24.35,3.73,9.61,8.85,18.82,15.88,26.42,8.46,9.15,19.79,15.14,32.04,17.29,8.32,1.46,17.13,1.47,25.49.43,4.9-.61,9.73-1.73,14.38-3.41,5.84-2.1,11.36-5.09,16.23-8.95,5.87-4.66,10.66-10.54,14.22-17.12,4.65-8.61,7.18-18.23,8.35-27.9,1.37-11.33.95-22.84-.4-34.16h16.32s-1.58-8.56-1.58-8.56l5.17-2.08-3.09-2.64s-15.94-17.99-128.8-8.26c-5.47.47-10.3,2.96-13.71,7.34-1.66,2.13-3.16,2.42-5.68,2.7-3.64.4-7.34.44-11,.44h-.18c-3.66,0-7.35-.04-11-.44-2.53-.28-4.03-.57-5.68-2.7-3.41-4.38-8.25-6.87-13.71-7.34-112.86-9.73-128.8,8.26-128.8,8.26l-3.09,2.64,5.17,2.08-1.58,8.56h16.32c-1.35,11.31-1.77,22.82-.4,34.16,1.17,9.68,3.7,19.29,8.35,27.9,3.56,6.58,8.36,12.46,14.22,17.12,4.86,3.86,10.39,6.85,16.23,8.95,4.64,1.67,9.48,2.8,14.38,3.41,8.36,1.04,17.18,1.03,25.49-.43,12.26-2.15,23.58-8.14,32.04-17.29,7.03-7.6,12.14-16.81,15.88-26.42,3.05-7.85,5.22-16.05,6.65-24.35.58-3.39,1.46-7.15,1.34-10.62-.37-11.15,8.19-12.88,8.19-12.88h.18Z"/>
      <path class="cls-5" d="M213.85,279.51c0,.06,0,.12,0,.18-.03,3.16-.67,6.21-1.2,9.31-1.28,7.42-3.22,14.75-5.95,21.77-3.34,8.59-7.91,16.82-14.19,23.62-7.57,8.18-17.69,13.53-28.65,15.46-7.43,1.31-15.32,1.31-22.79.38-4.38-.54-8.7-1.55-12.85-3.05-5.22-1.88-10.16-4.55-14.51-8-5.24-4.16-9.53-9.42-12.71-15.31-4.16-7.7-6.42-16.3-7.47-24.95-.41-3.37-.64-6.76-.72-10.15s.22-6.74.13-10.05c-.17-6.79.23-13.57,1.41-20.27.08-.47.23-1.04.23-1.51.12-.53.31-1.06.64-1.58.89-1.4,2.33-2.37,3.84-3.07,2.96-1.37,6.12-2.29,9.31-2.97,2.09-.45,4.19-.8,6.31-1.1,2.65-.37,5.31-.65,7.98-.87,3.28-.27,6.56-.45,9.85-.57,3.97-.14,7.94-.19,11.91-.18,4.73.02,9.45.12,14.17.29,5.55.2,11.09.48,16.63.83,1.67.11,3.34.22,5.01.33,1.54.11,3.08.3,4.63.41,3.3.24,6.63.22,9.9.76.52.09,1.04.19,1.56.31,2.19.5,4.35,1.37,6.34,2.41,2.33,1.22,4.01,3.21,5.65,5.21,1.53,1.86,3.18,3.76,4.07,6.03s.91,4.72,1.03,7.1c.15,3.08.46,6.15.44,9.24Z"/>
      <path class="cls-5" d="M245.86,279.51c0,.06,0,.12,0,.18.03,3.16.67,6.21,1.2,9.31,1.28,7.42,3.22,14.75,5.95,21.77,3.34,8.59,7.91,16.82,14.19,23.62,7.57,8.18,17.69,13.53,28.65,15.46,7.43,1.31,15.32,1.31,22.79.38,4.38-.54,8.7-1.55,12.85-3.05,5.22-1.88,10.16-4.55,14.51-8,5.24-4.16,9.53-9.42,12.71-15.31,4.16-7.7,6.42-16.3,7.47-24.95.41-3.37.64-6.76.72-10.15.08-3.31-.22-6.74-.13-10.05.17-6.79-.23-13.57-1.41-20.27-.08-.47-.23-1.04-.23-1.51-.12-.53-.31-1.06-.64-1.58-.89-1.4-2.33-2.37-3.84-3.07-2.96-1.37-6.12-2.29-9.31-2.97-2.09-.45-4.19-.8-6.31-1.1-2.65-.37-5.31-.65-7.98-.87-3.28-.27-6.56-.45-9.85-.57-3.97-.14-7.94-.19-11.91-.18-4.73.02-9.45.12-14.17.29-5.55.2-11.09.48-16.63.83-1.67.11-3.34.22-5.01.33-1.54.11-3.08.3-4.63.41-3.3.24-6.63.22-9.9.76-.52.09-1.04.19-1.56.31-2.19.5-4.35,1.37-6.34,2.41-2.33,1.22-4.01,3.21-5.65,5.21-1.53,1.86-3.18,3.76-4.07,6.03s-.91,4.72-1.03,7.1c-.15,3.08-.46,6.15-.44,9.24Z"/>
      <path class="cls-6" d="M98.64,302.31s2.67,23.42,18.75,32.83c.33.19.65.41.94.66,2.34,2,14.3,11.26,24.82,1.48,1.07-1,2.49-1.56,3.95-1.62,2.98-.12,8.3.93,17.01,6.39,1.34.84,2.95,1.17,4.51.9,4.58-.78,13.75-3.16,14.84-9.89.28-1.73,1.18-3.29,2.65-4.26,3.4-2.24,9.06-6.62,10.54-11.73,0,0,4.27-18.56-2.84-15.89,0,0-7.28,11-20.44,15.78,0,0-25.13,4.83-28.74-10.43-.71-2.98-3.5-4.98-6.56-4.82-5.94.31-14.22-.61-15.78-7.78-.11-.53-.26-1.05-.48-1.53-1.46-3.1-7.38-14.05-15.76-7.77-10.22,7.67-7.39,17.67-7.39,17.67Z"/>
      <path class="cls-6" d="M155.71,280.03s10.82-17.5,34.99-4c0,0,10.17,2.67,4.5,7.83,0,0-30.67,10.67-24.17,3.67,0,0,15.9-7.5,8.11-8.67,0,0-9.45-7.33-16.11-.83-6.67,6.5-7.32,2-7.32,2Z"/>
      <path class="cls-6" d="M114.03,257.28c3.06-.49,7.23.12,11.34,4.75,0,0-1,11.78-6.22,6.89,0,0-2.78-4-.11-6,0,0-13.78,1.89-8.89-1.11,1.63-1,2.08-1.63,1.97-2.04-.34-1.16.72-2.3,1.91-2.49Z"/>
      <path class="cls-6" d="M361.07,302.31s-2.67,23.42-18.75,32.83c-.33.19-.65.41-.94.66-2.34,2-14.3,11.26-24.82,1.48-1.07-1-2.49-1.56-3.95-1.62-2.98-.12-8.3.93-17.01,6.39-1.34.84-2.95,1.17-4.51.9-4.58-.78-13.75-3.16-14.84-9.89-.28-1.73-1.18-3.29-2.65-4.26-3.4-2.24-9.06-6.62-10.54-11.73,0,0-4.27-18.56,2.84-15.89,0,0,7.28,11,20.44,15.78,0,0,25.13,4.83,28.74-10.43.71-2.98,3.5-4.98,6.56-4.82,5.94.31,14.22-.61,15.78-7.78.11-.53.26-1.05.48-1.53,1.46-3.1,7.38-14.05,15.76-7.77,10.22,7.67,7.39,17.67,7.39,17.67Z"/>
      <path class="cls-6" d="M304,280.03s-10.82-17.5-34.99-4c0,0-10.17,2.67-4.5,7.83,0,0,30.67,10.67,24.17,3.67,0,0-15.9-7.5-8.11-8.67,0,0,9.45-7.33,16.11-.83s7.32,2,7.32,2Z"/>
      <path class="cls-6" d="M345.69,257.28c-3.06-.49-7.23.12-11.34,4.75,0,0,1,11.78,6.22,6.89,0,0,2.78-4,.11-6,0,0,13.78,1.89,8.89-1.11-1.63-1-2.08-1.63-1.97-2.04.34-1.16-.72-2.3-1.91-2.49Z"/>
      <g>
        <path class="cls-10" d="M89.78,30.8s-1.6.36-.76,3.78c0,0-5.08.35-2.62,4.39l-.87.89s-.4-.17-1.04.48c0,0-2.32,3.95-2.48,4.8,0,0-9.88,19.09-10.52,38.47,0,0-3.57,30.2-2.61,43.29l-4.03-2.91,3,7s-4.71,1.33-4.86,4.17l4.61-.85s-2.12,1.57-1.75,3.68l1,1s.47,2.67,1,5c0,0-1.11,12.35,0,14,0,0,2,3,2,4,0,0-.41,3.39-2,2,0,0-1,5,3,10,0,0-3.2,4.03-1,7,0,0,4.88,16.66,8,21,0,0,1.84,4.5,1,7,0,0,3.71-5.24,10.85-12.35s18.27-16.56,30.81-24.72,27.17-23.22,41.17-19.18c0,0-7.17-34.26-22.54-55.8,0,0-24.45-43.35-49.38-66.15Z"/>
        <path class="cls-7" d="M77.69,209.51s.91-2.18-.96-7.84c0,0-3.27-4.61-8.07-20.64,0,0-2.8-2.03,1.2-7.03,0,0-3.81-4.21-3.41-10.61,0,0,1.41,1.61,2.41-1.39,0,0-.22-1.29-2.11-2.65,0,0-.95,0-.42-15.68,0,0-.47-.67.53-4.67l-2.37-.11s-.12-2.26,3.12-4.57l-4.61.85s-.14-3.17,4.86-4.17l-3-7,4.03,2.91s-1.95-30.59.79-42.2c.1-.43.2-.86.27-1.3.34-2.16,1.79-10.16,5.97-23.11,0,0-.06,6.7-3.06,23.7,0,0,3-3,2-1,0,0-1,6,0,12,0,0,1,0,2-1,0,0,7.12-3.38,1.06,4.31,0,0-4.06,2.69-2.06,5.69,0,0,4-1,5-2,0,0-2.48,3.55-2.74,6.28,0,0-4.26,3.72-.26,9.72,0,0,3,3,0,5,0,0-6.48,9.3.26,31.65,0,0-1.26-8.65,8.74-4.65,0,0,4.72-5.52,4.86-18.26,0,0,4.01-.98,2.58,2.64,0,0-3.52,8.73,5.02,17.18,0,0,1.54-.56,1.54-1.56l13.54,17.7-6.83,9.08.17,7.08-11.25,10.42s-10.32-.21-7.44,6.38c1.36,3.12-5.64,8.09-11.34,8.85Z"/>
        <path class="cls-7" d="M110.01,139.39l-6.16-39.39,8.49-4.61,1.99.47s-2.04,5.51,14.75.83c0,0,5.37-.45,10.08,14.93,0,0,2.3.72,0-6.95,0,0-.21-3.07,3.24-1.37,0,0,16.46,20.7,14.46,41.7,0,0-1.06,16.28-3.98,15.68-10.9-2.24-18.03,10.43-26.52,7.37s-16.34-28.67-16.34-28.67Z"/>
        <path class="cls-13" d="M69.57,212.93s7.86-3,9.29-3.92-.42-7.35-2.1-7.29l6.13.45s-6.29-2.64-6.72-3.64c0,0,4.16.21,5.36.52,0,0,1.91-1.94,1.5-3.62,0,0,1.15-4.44,8.61-2.01,0,0-3.09-3.81-3.49-7.39,0,0,5.79,3.35,7.64,3.7,0,0,9.41,4.98-2.09-7.67,0,0-6.6-7.7-6.88-11.77,0,0,17.75,15.44,19.7,11.76,0,0-6.85-5.96-6.99-9.6,0,0,1.08-.39,3.55,1.36,0,0,2.3-.57-2.63-4.87,0,0-4.67-3.79-2.26-4.86,0,0,4.32,5.36,3.95.64,0,0,.42-3.77,5.4,2.82l-6.29-9.15h5.26s-8.28-7.63-5.71-10.86c0,0,6.33,4.14,8.75,3.91,0,0-4.84-11.02-14.54-16.14,0,0-1.31-4.23-3.39-3.58,0,0,.64-1.56,4.28-.7,0,0,2.05-.16-5.13-6.71,0,0,8.07-2.62,9.6-2.26,0,0-9.43-4.17-10.49-5.61,0,0,9.66-5.78,11.37-5.14,0,0-13.81-5.55-14.77-4.83l12.18-4.04s-15.24-.53-5.45-5.12c0,0-8.38-2.93-10.32-.57,0,0-1.38-2.82,5.28-5.69,0,0-7.67.99-8.17-.37,0,0,10.09-3.92-1.45-4.89l13.63-3.77-12.76-4.11,10.89-2.68s-9.87-5.25-10.69-9.4c0,0,2.44,2.89,7.51,1.8,0,0,3.14-1.06-5.74-7.51,0,0-1.87-2.66,3.57-.98l4.32,1.31-8.39-5.67s7.15.43.29-7.93l.85-1.79s13.48,10.09,3.45-5.22l.71-1.25s5.8,4.98,3.59-7.8c0,0,1.61-1.19,11.48,16.07,0,0-5.77,4.33,1.65,4.63l-4.27,4.6,4.29,1.74s-4.27,1.68-2.47,3.12c0,0,1.93,1.94,7.8,2.99,0,0-14.08,5.54-4.83,6.32,0,0,4.11.44-1.25,4.08l12.11,1.83s-20.63,7.06,1.82,7.02c0,0-25.71,7.63-4.09,6.59l-1.57,2.51,8.74.06s-15.32,7.58-4.99,8.44c0,0,2.11,1.81-3.28,1.78,0,0-18.48,1.79,13.25,3.05l-7.13,3.76,3.94,1.67-7.47,1.97,13.99,4.29-14.85,3.52s9.28,3.67,12.88,8.15c0,0-3.27-.6-8.29,1.9l3.69,2.96-5.11,1.33s10.72,6.21-4.03,4.88c0,0,13.36,3.59,9.75,9.86s7.9,13.04,7.9,13.04l.26-11.09s14.91,23.87,9.22-3.26c0,0,15.33,20.92,8.18-7.43l6.76,8.58-3.56-11.88,4.61,5.8s-3.3-30.65-15.75-46.72c0,0,17.11,10.73,22.49,55.84,0,0-9.18-1.07-3.94,9.62,0,0-6.59-5.35-21.34,3.82,0,0,4.51,8.33-13.92,5.83,0,0-4.54,1.87,2.04,5.19l-12.72,1.13,5.67,6.1s-16.96-1.54-11.17,6.42c0,0,3.67,10.29-16.5,5.75l8.9,5.54-20.99,10.25-8.12.48Z"/>
      </g>
    </g>
  </g>
</svg>